<svg width="32" height="32" viewBox="0 0 32 32" fill="none" xmlns="http://www.w3.org/2000/svg">
<path d="M12.0001 18.6666H25.3334L20.7334 12.6666L17.6667 16.6666L15.6001 14L12.0001 18.6666ZM10.6667 24C9.93341 24 9.30564 23.7388 8.78341 23.2166C8.26119 22.6944 8.00008 22.0666 8.00008 21.3333V5.33329C8.00008 4.59996 8.26119 3.97218 8.78341 3.44996C9.30564 2.92774 9.93341 2.66663 10.6667 2.66663H26.6667C27.4001 2.66663 28.0279 2.92774 28.5501 3.44996C29.0723 3.97218 29.3334 4.59996 29.3334 5.33329V21.3333C29.3334 22.0666 29.0723 22.6944 28.5501 23.2166C28.0279 23.7388 27.4001 24 26.6667 24H10.6667ZM10.6667 21.3333H26.6667V5.33329H10.6667V21.3333ZM5.33341 29.3333C4.60008 29.3333 3.9723 29.0722 3.45008 28.55C2.92786 28.0277 2.66675 27.4 2.66675 26.6666V7.99996H5.33341V26.6666H24.0001V29.3333H5.33341Z" fill="#4C4D5F"/>
</svg>
