<svg width="48" height="49" viewBox="0 0 48 49" fill="none" xmlns="http://www.w3.org/2000/svg">
<path d="M12 38.562H18V28.562C18 27.9953 18.1917 27.5203 18.575 27.137C18.9583 26.7537 19.4333 26.562 20 26.562H28C28.5667 26.562 29.0417 26.7537 29.425 27.137C29.8083 27.5203 30 27.9953 30 28.562V38.562H36V20.562L24 11.562L12 20.562V38.562ZM8 38.562V20.562C8 19.9287 8.14167 19.3287 8.425 18.762C8.70833 18.1953 9.1 17.7287 9.6 17.362L21.6 8.36201C22.3 7.82868 23.1 7.56201 24 7.56201C24.9 7.56201 25.7 7.82868 26.4 8.36201L38.4 17.362C38.9 17.7287 39.2917 18.1953 39.575 18.762C39.8583 19.3287 40 19.9287 40 20.562V38.562C40 39.662 39.6083 40.6037 38.825 41.387C38.0417 42.1703 37.1 42.562 36 42.562H28C27.4333 42.562 26.9583 42.3703 26.575 41.987C26.1917 41.6037 26 41.1287 26 40.562V30.562H22V40.562C22 41.1287 21.8083 41.6037 21.425 41.987C21.0417 42.3703 20.5667 42.562 20 42.562H12C10.9 42.562 9.95833 42.1703 9.175 41.387C8.39167 40.6037 8 39.662 8 38.562Z" fill="white"/>
</svg>
