<svg width="48" height="49" viewBox="0 0 48 49" fill="none" xmlns="http://www.w3.org/2000/svg">
<path d="M8.77611 39.3931C7.45784 39.9482 6 38.9802 6 37.5499V11.5742C6 10.1438 7.45785 9.17584 8.77611 9.7309L39.6222 22.7187C41.2541 23.4058 41.2541 25.7182 39.6222 26.4053L8.77611 39.3931ZM10 34.562L29.3328 26.4047C30.9628 25.7169 30.9628 23.4071 29.3328 22.7193L10 14.562V20.0005C10 20.9182 10.6246 21.7182 11.5149 21.9407L14.2389 22.6217C16.2588 23.1267 16.2588 25.9973 14.2389 26.5023L11.5149 27.1833C10.6246 27.4059 10 28.2058 10 29.1236V34.562Z" fill="white"/>
</svg>
