<svg width="48" height="49" viewBox="0 0 48 49" fill="none" xmlns="http://www.w3.org/2000/svg">
<path d="M21.6 36.562H26.4V26.962H36V22.162H26.4V12.562H21.6V22.162H12V26.962H21.6V36.562ZM24 48.562C20.68 48.562 17.56 47.932 14.64 46.672C11.72 45.412 9.18 43.702 7.02 41.542C4.86 39.382 3.15 36.842 1.89 33.922C0.63 31.002 0 27.882 0 24.562C0 21.242 0.63 18.122 1.89 15.202C3.15 12.282 4.86 9.74201 7.02 7.58201C9.18 5.42201 11.72 3.71201 14.64 2.45201C17.56 1.19201 20.68 0.562012 24 0.562012C27.32 0.562012 30.44 1.19201 33.36 2.45201C36.28 3.71201 38.82 5.42201 40.98 7.58201C43.14 9.74201 44.85 12.282 46.11 15.202C47.37 18.122 48 21.242 48 24.562C48 27.882 47.37 31.002 46.11 33.922C44.85 36.842 43.14 39.382 40.98 41.542C38.82 43.702 36.28 45.412 33.36 46.672C30.44 47.932 27.32 48.562 24 48.562ZM24 43.762C29.36 43.762 33.9 41.902 37.62 38.182C41.34 34.462 43.2 29.922 43.2 24.562C43.2 19.202 41.34 14.662 37.62 10.942C33.9 7.22201 29.36 5.36201 24 5.36201C18.64 5.36201 14.1 7.22201 10.38 10.942C6.66 14.662 4.8 19.202 4.8 24.562C4.8 29.922 6.66 34.462 10.38 38.182C14.1 41.902 18.64 43.762 24 43.762Z" fill="#FEFEFE"/>
</svg>
