<svg width="48" height="48" viewBox="0 0 48 48" fill="none" xmlns="http://www.w3.org/2000/svg">
<path d="M12 28C10.9 28 9.95833 27.6083 9.175 26.825C8.39167 26.0417 8 25.1 8 24C8 22.9 8.39167 21.9583 9.175 21.175C9.95833 20.3917 10.9 20 12 20C13.1 20 14.0417 20.3917 14.825 21.175C15.6083 21.9583 16 22.9 16 24C16 25.1 15.6083 26.0417 14.825 26.825C14.0417 27.6083 13.1 28 12 28ZM24 28C22.9 28 21.9583 27.6083 21.175 26.825C20.3917 26.0417 20 25.1 20 24C20 22.9 20.3917 21.9583 21.175 21.175C21.9583 20.3917 22.9 20 24 20C25.1 20 26.0417 20.3917 26.825 21.175C27.6083 21.9583 28 22.9 28 24C28 25.1 27.6083 26.0417 26.825 26.825C26.0417 27.6083 25.1 28 24 28ZM36 28C34.9 28 33.9583 27.6083 33.175 26.825C32.3917 26.0417 32 25.1 32 24C32 22.9 32.3917 21.9583 33.175 21.175C33.9583 20.3917 34.9 20 36 20C37.1 20 38.0417 20.3917 38.825 21.175C39.6083 21.9583 40 22.9 40 24C40 25.1 39.6083 26.0417 38.825 26.825C38.0417 27.6083 37.1 28 36 28Z" fill="white"/>
</svg>
