<svg width="48" height="49" viewBox="0 0 48 49" fill="none" xmlns="http://www.w3.org/2000/svg">
<path d="M24 24.562C21.8 24.562 19.9167 23.7787 18.35 22.212C16.7833 20.6453 16 18.762 16 16.562C16 14.362 16.7833 12.4787 18.35 10.912C19.9167 9.34535 21.8 8.56201 24 8.56201C26.2 8.56201 28.0833 9.34535 29.65 10.912C31.2167 12.4787 32 14.362 32 16.562C32 18.762 31.2167 20.6453 29.65 22.212C28.0833 23.7787 26.2 24.562 24 24.562ZM8 40.562V34.962C8 33.8287 8.29167 32.787 8.875 31.837C9.45833 30.887 10.2333 30.162 11.2 29.662C13.2667 28.6287 15.3667 27.8537 17.5 27.337C19.6333 26.8203 21.8 26.562 24 26.562C26.2 26.562 28.3667 26.8203 30.5 27.337C32.6333 27.8537 34.7333 28.6287 36.8 29.662C37.7667 30.162 38.5417 30.887 39.125 31.837C39.7083 32.787 40 33.8287 40 34.962V40.562H8ZM12 36.562H36V34.962C36 34.5953 35.9083 34.262 35.725 33.962C35.5417 33.662 35.3 33.4287 35 33.262C33.2 32.362 31.3833 31.687 29.55 31.237C27.7167 30.787 25.8667 30.562 24 30.562C22.1333 30.562 20.2833 30.787 18.45 31.237C16.6167 31.687 14.8 32.362 13 33.262C12.7 33.4287 12.4583 33.662 12.275 33.962C12.0917 34.262 12 34.5953 12 34.962V36.562ZM24 20.562C25.1 20.562 26.0417 20.1703 26.825 19.387C27.6083 18.6037 28 17.662 28 16.562C28 15.462 27.6083 14.5203 26.825 13.737C26.0417 12.9537 25.1 12.562 24 12.562C22.9 12.562 21.9583 12.9537 21.175 13.737C20.3917 14.5203 20 15.462 20 16.562C20 17.662 20.3917 18.6037 21.175 19.387C21.9583 20.1703 22.9 20.562 24 20.562Z" fill="white"/>
</svg>
