<svg width="48" height="49" viewBox="0 0 48 49" fill="none" xmlns="http://www.w3.org/2000/svg">
<path d="M19 32.562C15.3667 32.562 12.2917 31.3037 9.775 28.787C7.25833 26.2703 6 23.1953 6 19.562C6 15.9287 7.25833 12.8537 9.775 10.337C12.2917 7.82035 15.3667 6.56201 19 6.56201C22.6333 6.56201 25.7083 7.82035 28.225 10.337C30.7417 12.8537 32 15.9287 32 19.562C32 21.0287 31.7667 22.412 31.3 23.712C30.8333 25.012 30.2 26.162 29.4 27.162L40.6 38.362C40.9667 38.7287 41.15 39.1953 41.15 39.762C41.15 40.3287 40.9667 40.7953 40.6 41.162C40.2333 41.5287 39.7667 41.712 39.2 41.712C38.6333 41.712 38.1667 41.5287 37.8 41.162L26.6 29.962C25.6 30.762 24.45 31.3953 23.15 31.862C21.85 32.3287 20.4667 32.562 19 32.562ZM19 28.562C21.5 28.562 23.625 27.687 25.375 25.937C27.125 24.187 28 22.062 28 19.562C28 17.062 27.125 14.937 25.375 13.187C23.625 11.437 21.5 10.562 19 10.562C16.5 10.562 14.375 11.437 12.625 13.187C10.875 14.937 10 17.062 10 19.562C10 22.062 10.875 24.187 12.625 25.937C14.375 27.687 16.5 28.562 19 28.562Z" fill="white"/>
</svg>
