<svg width="44" height="44" viewBox="0 0 44 44" fill="none" xmlns="http://www.w3.org/2000/svg">
<path d="M16.9583 40.3334L16.225 34.4667C15.8277 34.314 15.4534 34.1306 15.102 33.9167C14.7506 33.7029 14.4069 33.4737 14.0708 33.2292L8.61662 35.5209L3.57495 26.8126L8.29578 23.2376C8.26523 23.0237 8.24995 22.8174 8.24995 22.6188V21.3813C8.24995 21.1827 8.26523 20.9765 8.29578 20.7626L3.57495 17.1876L8.61662 8.47925L14.0708 10.7709C14.4069 10.5265 14.7583 10.2973 15.125 10.0834C15.4916 9.86953 15.8583 9.68619 16.225 9.53341L16.9583 3.66675H27.0416L27.775 9.53341C28.1722 9.68619 28.5465 9.86953 28.8979 10.0834C29.2493 10.2973 29.593 10.5265 29.9291 10.7709L35.3833 8.47925L40.425 17.1876L35.7041 20.7626C35.7347 20.9765 35.75 21.1827 35.75 21.3813V22.6188C35.75 22.8174 35.7194 23.0237 35.6583 23.2376L40.3791 26.8126L35.3375 35.5209L29.9291 33.2292C29.593 33.4737 29.2416 33.7029 28.875 33.9167C28.5083 34.1306 28.1416 34.314 27.775 34.4667L27.0416 40.3334H16.9583ZM20.1666 36.6667H23.7875L24.4291 31.8084C25.3763 31.564 26.2548 31.2049 27.0645 30.7313C27.8743 30.2577 28.6152 29.6848 29.2875 29.0126L33.825 30.8917L35.6125 27.7751L31.6708 24.7959C31.8236 24.3681 31.9305 23.9174 31.9916 23.4438C32.0527 22.9702 32.0833 22.489 32.0833 22.0001C32.0833 21.5112 32.0527 21.0299 31.9916 20.5563C31.9305 20.0827 31.8236 19.632 31.6708 19.2042L35.6125 16.2251L33.825 13.1084L29.2875 15.0334C28.6152 14.3306 27.8743 13.7424 27.0645 13.2688C26.2548 12.7952 25.3763 12.4362 24.4291 12.1917L23.8333 7.33341H20.2125L19.5708 12.1917C18.6236 12.4362 17.7451 12.7952 16.9354 13.2688C16.1256 13.7424 15.3847 14.3154 14.7125 14.9876L10.175 13.1084L8.38745 16.2251L12.3291 19.1584C12.1763 19.6167 12.0694 20.0751 12.0083 20.5334C11.9472 20.9917 11.9166 21.4806 11.9166 22.0001C11.9166 22.489 11.9472 22.9626 12.0083 23.4209C12.0694 23.8792 12.1763 24.3376 12.3291 24.7959L8.38745 27.7751L10.175 30.8917L14.7125 28.9667C15.3847 29.6695 16.1256 30.2577 16.9354 30.7313C17.7451 31.2049 18.6236 31.564 19.5708 31.8084L20.1666 36.6667ZM22.0916 28.4167C23.8638 28.4167 25.3763 27.7904 26.6291 26.5376C27.8819 25.2848 28.5083 23.7723 28.5083 22.0001C28.5083 20.2279 27.8819 18.7154 26.6291 17.4626C25.3763 16.2098 23.8638 15.5834 22.0916 15.5834C20.2888 15.5834 18.7687 16.2098 17.5312 17.4626C16.2937 18.7154 15.675 20.2279 15.675 22.0001C15.675 23.7723 16.2937 25.2848 17.5312 26.5376C18.7687 27.7904 20.2888 28.4167 22.0916 28.4167Z" fill="#FEFEFE"/>
</svg>
